<?xml version="1.0" encoding="UTF-8" standalone="no"?>
<!-- Created with Inkscape (http://www.inkscape.org/) -->

<svg
   xmlns:dc="http://purl.org/dc/elements/1.1/"
   xmlns:cc="http://creativecommons.org/ns#"
   xmlns:rdf="http://www.w3.org/1999/02/22-rdf-syntax-ns#"
   xmlns:svg="http://www.w3.org/2000/svg"
   xmlns="http://www.w3.org/2000/svg"
   xmlns:xlink="http://www.w3.org/1999/xlink"
   version="1.1"
   width="1192.1683"
   height="1212.0085"
   id="svg2">
  <metadata
     id="metadata8">
    <rdf:RDF>
      <cc:Work
         rdf:about="">
        <dc:format>image/svg+xml</dc:format>
        <dc:type
           rdf:resource="http://purl.org/dc/dcmitype/StillImage" />
        <dc:title></dc:title>
      </cc:Work>
    </rdf:RDF>
  </metadata>
  <defs
     id="defs6" />
  <path
     d="m 755.60596,105.63161 c 142.77644,78.85087 241.8055,251.12819 241.8055,450.96414 0,274.3668 -186.67173,496.78505 -416.94301,496.78505 -230.27129,0 -416.94306,-222.41825 -416.94306,-496.78505 0,-200.37123 99.56032,-373.036 242.9538,-451.59575"
     id="path3792"
     style="fill:none;stroke:#000000;stroke-width:10;stroke-linecap:square;stroke-linejoin:miter;stroke-miterlimit:4;stroke-opacity:1;stroke-dasharray:none;stroke-dashoffset:0" />
  <path
     d="m 421.98095,276.32944 a 55.810383,55.810383 0 1 1 -111.62077,0 55.810383,55.810383 0 1 1 111.62077,0 z"
     transform="matrix(1.1198046,0,0,1.1198046,-136.16342,-91.392537)"
     id="path2989"
     style="fill:#ff0000;fill-opacity:1;fill-rule:evenodd;stroke:#000000;stroke-width:2;stroke-linecap:square;stroke-linejoin:miter;stroke-miterlimit:4;stroke-opacity:1;stroke-dasharray:8, 2;stroke-dashoffset:0" />
  <use
     transform="translate(-49.004234,601.66314)"
     id="use2991"
     style="stroke:#000000;stroke-opacity:1"
     x="0"
     y="0"
     width="1404"
     height="1285"
     xlink:href="#path2989" />
  <use
     transform="translate(-110.25953,294.02543)"
     id="use2995"
     style="stroke:#000000;stroke-opacity:1"
     x="0"
     y="0"
     width="1404"
     height="1285"
     xlink:href="#path2989" />
  <use
     transform="translate(35.391948,-155.18009)"
     id="use2997"
     style="stroke:#000000;stroke-opacity:1"
     x="0"
     y="0"
     width="1404"
     height="1285"
     xlink:href="#use2995" />
  <use
     transform="translate(65.338978,745.95339)"
     id="use2999"
     style="stroke:#000000;stroke-opacity:1"
     x="0"
     y="0"
     width="1404"
     height="1285"
     xlink:href="#path2989" />
  <use
     transform="translate(206.90678,819.45974)"
     id="use3001"
     style="stroke:#000000;stroke-opacity:1"
     x="0"
     y="0"
     width="1404"
     height="1285"
     xlink:href="#path2989" />
  <use
     transform="translate(537.68538,752.75953)"
     id="use3003"
     style="stroke:#000000;stroke-opacity:1"
     x="0"
     y="0"
     width="1404"
     height="1285"
     xlink:href="#path2989" />
  <use
     transform="translate(646.58369,617.99788)"
     id="use3005"
     style="stroke:#000000;stroke-opacity:1"
     x="0"
     y="0"
     width="1404"
     height="1285"
     xlink:href="#path2989" />
  <path
     d="m 421.98095,276.32944 a 55.810383,55.810383 0 1 1 -111.62077,0 55.810383,55.810383 0 1 1 111.62077,0 z"
     transform="matrix(1.1198046,0,0,1.1198046,483.19569,-88.670079)"
     id="path3007"
     style="fill:#00ff00;fill-opacity:1;fill-rule:evenodd;stroke:#000000;stroke-width:2;stroke-linecap:square;stroke-linejoin:miter;stroke-miterlimit:4;stroke-opacity:1;stroke-dasharray:8, 2;stroke-dashoffset:0" />
  <use
     transform="translate(-722.8125,453.28919)"
     id="use3009"
     style="stroke:#000000;stroke-opacity:1"
     x="0"
     y="0"
     width="1404"
     height="1285"
     xlink:href="#path3007" />
  <use
     transform="translate(479.15254,374.33793)"
     id="use3011"
     style="stroke:#000000;stroke-opacity:1"
     x="0"
     y="0"
     width="1404"
     height="1285"
     xlink:href="#use3009" />
  <use
     transform="translate(333.50106,-363.4481)"
     id="use3013"
     style="stroke:#000000;stroke-opacity:1"
     x="0"
     y="0"
     width="1404"
     height="1285"
     xlink:href="#use3011" />
  <use
     transform="translate(13.612288,-153.81885)"
     id="use3015"
     style="stroke:#000000;stroke-opacity:1"
     x="0"
     y="0"
     width="1404"
     height="1285"
     xlink:href="#use3013" />
  <use
     transform="translate(-29.947034,-176.95975)"
     id="use3017"
     style="stroke:#000000;stroke-opacity:1"
     x="0"
     y="0"
     width="1404"
     height="1285"
     xlink:href="#use3015" />
  <path
     d="M 184.50205,958.31737 366.90671,830.36187"
     id="path3788"
     style="fill:none;stroke:#000000;stroke-width:14;stroke-linecap:butt;stroke-linejoin:miter;stroke-miterlimit:4;stroke-opacity:1;stroke-dasharray:none" />
  <path
     d="M 894.59638,464.42486 1085.1684,420.86554"
     id="path3790"
     style="fill:none;stroke:#000000;stroke-width:14;stroke-linecap:butt;stroke-linejoin:miter;stroke-miterlimit:4;stroke-opacity:1;stroke-dasharray:none" />
</svg>
