<?xml version="1.0" standalone="no"?>
<!DOCTYPE svg PUBLIC "-//W3C//DTD SVG 1.1//EN"
"http://www.w3.org/Graphics/SVG/1.1/DTD/svg11.dtd">
<svg xmlns="http://www.w3.org/2000/svg" width="4.8in" height="3.6in" viewBox="5162 2091 5738 4321">
<g style="stroke:#000000;stroke-width:32;
stroke-linejoin:round; stroke-linecap:butt;">
<polygon points="8031,2362
8503,2125
8976,2362
8503,2598
8031,2362
8031,2362
" style="fill:#00b000;"/>
<polygon points="7559,3070
8031,2834
8503,3070
8031,3307
7559,3070
7559,3070
" style="fill:#00b000;
"/>
<polygon points="8031,3307
8503,3070
8976,3307
8503,3543
8031,3307
8031,3307
" style="fill:#00b000;
"/>
<polygon points="8503,3070
8976,2834
9448,3070
8976,3307
8503,3070
8503,3070
" style="fill:#00b000;
"/>
<polygon points="8976,3779
9448,3543
9921,3779
9448,4015
8976,3779
8976,3779
" style="fill:#00b000;
"/>
<polygon points="9448,4015
9921,3779
10393,4015
9921,4251
9448,4015
9448,4015
" style="fill:#00b000;
"/>
<polygon points="9921,5196
10393,4960
10866,5196
10393,5433
9921,5196
9921,5196
" style="fill:#00b000;
"/>
<polygon points="8503,4488
8976,4251
9448,4488
8976,4724
8503,4488
8503,4488
" style="fill:#00b000;
"/>
<polygon points="5196,5669
5669,5433
6141,5669
5669,5905
5196,5669
5196,5669
" style="fill:#00b000;
"/>
<polygon points="5669,5433
6141,5196
6614,5433
6141,5669
5669,5433
5669,5433
" style="fill:#00b000;
"/>
<polygon points="6141,5196
6614,4960
7086,5196
6614,5433
6141,5196
6141,5196
" style="fill:#00b000;
"/>
<polygon points="6614,4488
7086,4251
7559,4488
7086,4724
6614,4488
6614,4488
" style="fill:#00b000;
"/>
<polygon points="7086,3779
7559,3543
8031,3779
7559,4015
7086,3779
7086,3779
" style="fill:#00b000;
"/>
<polygon points="7086,5196
7559,4960
8031,5196
7559,5433
7086,5196
7086,5196
" style="fill:#00b000;
"/>
<polygon points="7559,4488
8031,4251
8503,4488
8031,4724
7559,4488
7559,4488
" style="fill:#00b000;
"/>
<polygon points="8976,5196
9448,4960
9921,5196
9448,5433
8976,5196
8976,5196
" style="fill:#00b000;
"/>
<polygon points="8031,2834
8031,2362
8503,2598
8503,3070
8031,2834
8031,2834
" style="fill:#0000d1;
"/>
<polygon points="7559,3543
7559,3070
8031,3307
8031,3779
7559,3543
7559,3543
" style="fill:#0000d1;
"/>
<polygon points="8031,3779
8031,3307
8503,3543
8503,4015
8031,3779
8031,3779
" style="fill:#0000d1;
"/>
<polygon points="8031,4251
8031,3779
8503,4015
8503,4488
8031,4251
8031,4251
" style="fill:#0000d1;
"/>
<polygon points="7086,4251
7086,3779
7559,4015
7559,4488
7086,4251
7086,4251
" style="fill:#0000d1;
"/>
<polygon points="6614,4960
6614,4488
7086,4724
7086,5196
6614,4960
6614,4960
" style="fill:#0000d1;
"/>
<polygon points="5196,6141
5196,5669
5669,5905
5669,6377
5196,6141
5196,6141
" style="fill:#0000d1;
"/>
<polygon points="7086,5669
7086,5196
7559,5433
7559,5905
7086,5669
7086,5669
" style="fill:#0000d1;
"/>
<polygon points="7559,4960
7559,4488
8031,4724
8031,5196
7559,4960
7559,4960
" style="fill:#0000d1;
"/>
<polygon points="8503,4960
8503,4488
8976,4724
8976,5196
8503,4960
8503,4960
" style="fill:#0000d1;
"/>
<polygon points="8503,5433
8503,4960
8976,5196
8976,5669
8503,5433
8503,5433
" style="fill:#0000d1;
"/>
<polygon points="8976,4251
8976,3779
9448,4015
9448,4488
8976,4251
8976,4251
" style="fill:#0000d1;
"/>
<polygon points="9448,4488
9448,4015
9921,4251
9921,4724
9448,4488
9448,4488
" style="fill:#0000d1;
"/>
<polygon points="9448,4960
9448,4488
9921,4724
9921,5196
9448,4960
9448,4960
" style="fill:#0000d1;
"/>
<polygon points="8976,5669
8976,5196
9448,5433
9448,5905
8976,5669
8976,5669
" style="fill:#0000d1;
"/>
<polygon points="9921,5669
9921,5196
10393,5433
10393,5905
9921,5669
9921,5669
" style="fill:#0000d1;
"/>
<polygon points="8503,3070
8503,2598
8976,2362
8976,2834
8503,3070
8503,3070
" style="fill:#ff0000;
"/>
<polygon points="8976,3779
8976,3307
9448,3070
9448,3543
8976,3779
8976,3779
" style="fill:#ff0000;
"/>
<polygon points="8503,4015
8503,3543
8976,3307
8976,3779
8503,4015
8503,4015
" style="fill:#ff0000;
"/>
<polygon points="8503,4488
8503,4015
8976,3779
8976,4251
8503,4488
8503,4488
" style="fill:#ff0000;
"/>
<polygon points="7559,4488
7559,4015
8031,3779
8031,4251
7559,4488
7559,4488
" style="fill:#ff0000;
"/>
<polygon points="10393,5905
10393,5433
10866,5196
10866,5669
10393,5905
10393,5905
" style="fill:#ff0000;
"/>
<polygon points="9921,5196
9921,4724
10393,4488
10393,4960
9921,5196
9921,5196
" style="fill:#ff0000;
"/>
<polygon points="9921,4724
9921,4251
10393,4015
10393,4488
9921,4724
9921,4724
" style="fill:#ff0000;
"/>
<polygon points="8976,5196
8976,4724
9448,4488
9448,4960
8976,5196
8976,5196
" style="fill:#ff0000;
"/>
<polygon points="9448,5905
9448,5433
9921,5196
9921,5669
9448,5905
9448,5905
" style="fill:#ff0000;
"/>
<polygon points="8031,5196
8031,4724
8503,4488
8503,4960
8031,5196
8031,5196
" style="fill:#ff0000;
"/>
<polygon points="8031,5669
8031,5196
8503,4960
8503,5433
8031,5669
8031,5669
" style="fill:#ff0000;
"/>
<polygon points="7559,5905
7559,5433
8031,5196
8031,5669
7559,5905
7559,5905
" style="fill:#ff0000;
"/>
<polygon points="7086,5196
7086,4724
7559,4488
7559,4960
7086,5196
7086,5196
" style="fill:#ff0000;
"/>
<polygon points="6614,5905
6614,5433
7086,5196
7086,5669
6614,5905
6614,5905
" style="fill:#ff0000;
"/>
<polygon points="6141,6141
6141,5669
6614,5433
6614,5905
6141,6141
6141,6141
" style="fill:#ff0000;
"/>
<polygon points="5669,6377
5669,5905
6141,5669
6141,6141
5669,6377
5669,6377
" style="fill:#ff0000;
"/>
</g>
</svg>
